<svg xmlns="http://www.w3.org/2000/svg" width="19.149" height="19.137" viewBox="0 0 19.149 19.137">
  <g id="ico_pin" transform="translate(0.649 0.642)">
    <path id="Path" d="M13.616,6.311a1.96,1.96,0,0,0-2.765,0L6.012,11.15a1.955,1.955,0,0,0,2.765,2.765l.346-.346,2.885,2.885a6.889,6.889,0,0,0,1.608,7.138.491.491,0,0,0,.691,0l4.148-4.148,3.111,3.111a.489.489,0,1,0,.691-.691l-3.111-3.111,4.148-4.148a.484.484,0,0,0,0-.691,6.849,6.849,0,0,0-7.138-1.608L13.271,9.421l.345-.345a1.956,1.956,0,0,0,0-2.765Z" transform="translate(-5.44 -5.74)" fill="none" stroke="#ddd" stroke-width="1"/>
  </g>
</svg>
