<svg xmlns="http://www.w3.org/2000/svg" xmlns:xlink="http://www.w3.org/1999/xlink" width="29" height="29" viewBox="0 0 29 29">
  <defs>
    <clipPath id="clip-path">
      <rect id="長方形_146" data-name="長方形 146" width="29" height="29" rx="14.5" transform="translate(-1823 2798)" fill="#3b96dd" opacity="0.3"/>
    </clipPath>
  </defs>
  <g id="ico_table" transform="translate(1823 -2798)" clip-path="url(#clip-path)">
    <g id="list_alt-24px" transform="translate(-1818 2803)">
      <path id="パス_65" data-name="パス 65" d="M0,0H20V20H0Z" fill="none"/>
      <path id="パス_66" data-name="パス 66" d="M16.333,4.667V16.333H4.667V4.667H16.333M17.25,3H3.75A.747.747,0,0,0,3,3.75v13.5a.806.806,0,0,0,.75.75h13.5a.884.884,0,0,0,.75-.75V3.75A.806.806,0,0,0,17.25,3ZM9.667,6.333h5V8h-5Zm0,3.333h5v1.667h-5Zm0,3.333h5v1.667h-5ZM6.333,6.333H8V8H6.333Zm0,3.333H8v1.667H6.333Zm0,3.333H8v1.667H6.333Z" transform="translate(-0.5 -0.5)" fill="#3b96dd"/>
    </g>
  </g>
</svg>
